,
.   http://www.scenetime.com/signup.php  ---&gt;  Hottest scene tracker on the net !!! 
Scenetime lucky draw is started , join now and be the winner . offer is limited 

    Join Now   http://www.scenetime.com/signup.php

    seed back for speed


 



...................................NFO:.................................................





UUUUUUUUUUUUUUUUUUUUUUUU
UUUUUUUUUUUUUUUUUUUUUUUUUUUUUU
UUUUUUUUUUUUUUU
UUUUUUUUU
UUUUUU
UUUUUUU
UUUUUUUUUUU
UUUUUUUUUUU
UUUUUUUUUUUUUU
UUUUUUUUUUU
UUUUUUUUU
UUUUUUUU
UUUUUUUU
UUUUUUUU
UUUUUUUUU
UUUUUUUUU
UUUUUUUUU
UUUUUUUUU
UUUUUUUUUUUUUU
UUUUUUUUUUUUUUUUUUUUUUUU
UUUUUUUUUUUUUUUUUUUUUUUUUU
UUUUUUUUU










U?U?U?U?U?U?U?

EAAUAA?EAAUAAAAAUEAAUAA?AAA?UAAUUAAAAAU
EAA?  EAA?AAAAAA?EAA?        AAAAAA?
  AAAU        
              
UAAAAAU      UAAAAAUAAAAAA?UAAAAAU        AAAAAA?
            AAAAAA?UAAAAAUAAAAAA?        UAAAAAU
                    
                    
AAAU      AAAU      AAAAAAAAAUAAAAAAAAAUAAAAAAAAAUAAAU  AAAU   AAAU   AAAAAAAAAU

Real.Steel.2011.DVDRip.XViD.AC3-SIC

Poster:

IMDB Link:
www.imdb.com/title/tt0433035/

Description:
Set in the near future, where robot boxing is a top sport, a struggling promoter 
feels he's found a champion in a discarded robot. During his hopeful rise to the 
top, he discovers he has an 11-year-old son who wants to know his father. 

MediaInfo:
Format                           : AVI
Format/Info                      : Audio Video Interleave
File size                        : 1.37 GiB
Duration                         : 2h 6mn
Overall bit rate                 : 1 545 Kbps

Video
ID                               : 0
Format                           : MPEG-4 Visual
Format profile                   : Advanced Simple@L5
Format settings, BVOP            : 2
Format settings, QPel            : No
Format settings, GMC             : No warppoints
Format settings, Matrix          : Default (MPEG)
Muxing mode                      : Packed bitstream
Codec ID                         : XVID
Codec ID/Hint                    : XviD
Duration                         : 2h 6mn
Bit rate                         : 1 217 Kbps
Width                            : 720 pixels
Height                           : 304 pixels
Display aspect ratio             : 2.35:1
Frame rate                       : 23.976 fps
Color space                      : YUV
Chroma subsampling               : 4:2:0
Bit depth                        : 8 bits
Scan type                        : Progressive
Compression mode                 : Lossy
Bits/(Pixel*Frame)               : 0.232
Stream size                      : 1.08 GiB (79%)
Writing library                  : XviD 64

Audio
ID                               : 1
Format                           : AC-3
Format/Info                      : Audio Coding 3
Mode extension                   : CM (complete main)
Codec ID                         : 2000
Duration                         : 2h 6mn
Bit rate mode                    : Constant
Bit rate                         : 320 Kbps
Channel(s)                       : 6 channels
Channel positions                : Front: L C R, Side: L R, LFE
Sampling rate                    : 48.0 KHz
Bit depth                        : 16 bits
Compression mode                 : Lossy
Stream size                      : 290 MiB (21%)
Alignment                        : Aligned on interleaves
Interleave, duration             : 64 ms (1.53 video frames)

Screenshots:
[IMG]http://img3.imageshack.us/img3/7315/39882578.png[/IMG]
[IMG]http://img190.imageshack.us/img190/1751/29996434.png[/IMG]
[IMG]http://img196.imageshack.us/img196/2986/33022048.png[/IMG]
[IMG]http://img546.imageshack.us/img546/355/63098501.png[/IMG]
[IMG]http://img822.imageshack.us/img822/8149/60739305.png[/IMG]
[IMG]http://img692.imageshack.us/img692/747/37560915.png[/IMG]
[IMG]http://img214.imageshack.us/img214/6857/79920539.png[/IMG]
[IMG]http://img6.imageshack.us/img6/7539/63400105.png[/IMG]

Note : 
The DVD is finally here :) anyway quality was nice but added afew of my own 
tweakes to improve alittle, Colours look better and picture is clear and abit
sharper so enjoy this great dvdrip with 5.1ch audio :D

Source: 
DVDR Yefste... Thanks 

Enjoy!

Respects to T00NG0D, ELEKTRI4KA, PA, YeFsTe, Box, MrRep and everyone in the struggle...